<svg width="1200" height="720" viewBox="0 0 1200 720" fill="none" xmlns="http://www.w3.org/2000/svg" role="img" aria-labelledby="title desc">
  <title id="title">Aura Voice AI Assistant</title>
  <desc id="desc">Stylized interface showing a microphone, audio waveform, and conversational AI response cards.</desc>

  <defs>
    <linearGradient id="bg" x1="80" y1="40" x2="1120" y2="680" gradientUnits="userSpaceOnUse">
      <stop stop-color="#052A4A"/>
      <stop offset="0.55" stop-color="#0C5E87"/>
      <stop offset="1" stop-color="#3ED3F4"/>
    </linearGradient>
    <linearGradient id="glass" x1="180" y1="120" x2="1020" y2="600" gradientUnits="userSpaceOnUse">
      <stop stop-color="white" stop-opacity="0.22"/>
      <stop offset="1" stop-color="white" stop-opacity="0.06"/>
    </linearGradient>
    <linearGradient id="ring" x1="507" y1="215" x2="693" y2="401" gradientUnits="userSpaceOnUse">
      <stop stop-color="#9FF7FF"/>
      <stop offset="1" stop-color="#7CD3FF"/>
    </linearGradient>
    <filter id="shadow" x="114" y="62" width="972" height="596" filterUnits="userSpaceOnUse" color-interpolation-filters="sRGB">
      <feFlood flood-opacity="0" result="BackgroundImageFix"/>
      <feColorMatrix in="SourceAlpha" type="matrix" values="0 0 0 0 0 0 0 0 0 0 0 0 0 0 0 0 0 0 127 0" result="hardAlpha"/>
      <feOffset dy="16"/>
      <feGaussianBlur stdDeviation="18"/>
      <feColorMatrix type="matrix" values="0 0 0 0 0.005 0 0 0 0 0.075 0 0 0 0 0.142 0 0 0 0.33 0"/>
      <feBlend mode="normal" in2="BackgroundImageFix" result="effect1_dropShadow_1_1"/>
      <feBlend mode="normal" in="SourceGraphic" in2="effect1_dropShadow_1_1" result="shape"/>
    </filter>
  </defs>

  <rect width="1200" height="720" fill="url(#bg)"/>
  <circle cx="1060" cy="120" r="220" fill="#7EE8FF" fill-opacity="0.16"/>
  <circle cx="120" cy="660" r="260" fill="#012C53" fill-opacity="0.28"/>

  <g filter="url(#shadow)">
  </g>

  <rect x="196" y="142" width="808" height="40" rx="12" fill="rgba(255,255,255,0.14)"/>
  <circle cx="226" cy="162" r="7" fill="#FCA5A5"/>
  <circle cx="250" cy="162" r="7" fill="#FDE68A"/>
  <circle cx="274" cy="162" r="7" fill="#86EFAC"/>
  <rect x="338" y="151" width="210" height="22" rx="11" fill="rgba(255,255,255,0.2)"/>

  <rect x="220" y="228" width="312" height="126" rx="22" fill="rgba(255,255,255,0.16)"/>
  <text x="248" y="267" fill="#CFF8FF" font-size="22" font-family="Segoe UI, Arial, sans-serif" font-weight="600">Listening</text>
  <text x="248" y="298" fill="#E6FBFF" fill-opacity="0.86" font-size="18" font-family="Segoe UI, Arial, sans-serif">How can I help you today?</text>

  <rect x="668" y="228" width="312" height="126" rx="22" fill="rgba(255,255,255,0.16)"/>
  <text x="696" y="267" fill="#CFF8FF" font-size="22" font-family="Segoe UI, Arial, sans-serif" font-weight="600">AI Response</text>
  <text x="696" y="298" fill="#E6FBFF" fill-opacity="0.86" font-size="18" font-family="Segoe UI, Arial, sans-serif">Processing your request...</text>

  <g opacity="0.94">
    <path d="M272 470C292 436 326 420 360 438C394 456 422 456 452 433C482 410 514 412 544 437" stroke="#D7F7FF" stroke-width="8" stroke-linecap="round"/>
    <path d="M272 500C299 472 333 464 362 480C391 496 424 500 457 473C490 446 524 444 552 462" stroke="#9EEEFF" stroke-width="8" stroke-linecap="round"/>
    <path d="M272 530C299 512 329 510 356 526C383 542 418 548 455 528C492 508 524 510 552 528" stroke="#77DAFF" stroke-width="8" stroke-linecap="round"/>
  </g>

  <circle cx="600" cy="308" r="92" fill="url(#ring)" fill-opacity="0.24"/>
  <circle cx="600" cy="308" r="66" fill="rgba(2,30,55,0.45)" stroke="#C7F7FF" stroke-opacity="0.72" stroke-width="3"/>
  <rect x="586" y="276" width="28" height="52" rx="14" fill="#DDFBFF"/>
  <rect x="578" y="324" width="44" height="10" rx="5" fill="#DDFBFF"/>
  <rect x="596" y="334" width="8" height="18" rx="4" fill="#DDFBFF"/>

  <rect x="646" y="420" width="310" height="140" rx="24" fill="rgba(255,255,255,0.14)"/>
  <text x="676" y="466" fill="#CFF8FF" font-size="20" font-family="Segoe UI, Arial, sans-serif" font-weight="600">Natural Voice Output</text>
  <rect x="676" y="486" width="242" height="10" rx="5" fill="rgba(231,250,255,0.84)"/>
  <rect x="676" y="506" width="212" height="10" rx="5" fill="rgba(231,250,255,0.72)"/>
  <rect x="676" y="526" width="178" height="10" rx="5" fill="rgba(231,250,255,0.58)"/>

  <text x="76" y="666" fill="rgba(220,248,255,0.7)" font-size="24" font-family="Segoe UI, Arial, sans-serif" letter-spacing="0.16em">AURA</text>
</svg>

