<svg width="1200" height="720" viewBox="0 0 1200 720" fill="none" xmlns="http://www.w3.org/2000/svg">
  <rect width="1200" height="720" rx="40" fill="url(#bg)"/>
  <circle cx="1080" cy="170" r="120" fill="#5EEAD4" fill-opacity="0.2"/>
  <circle cx="180" cy="610" r="170" fill="#14B8A6" fill-opacity="0.18"/>
  <rect x="118" y="110" width="964" height="500" rx="30" fill="#0F172A" fill-opacity="0.7" stroke="#334155"/>
  <rect x="164" y="154" width="452" height="410" rx="24" fill="#111827" stroke="#1E293B"/>
  <rect x="198" y="190" width="384" height="48" rx="14" fill="#0F766E"/>
  <circle cx="270" cy="340" r="54" fill="#34D399" fill-opacity="0.85"/>
  <path d="M270 286C286 260 324 256 346 278" stroke="#A7F3D0" stroke-width="16" stroke-linecap="round"/>
  <circle cx="410" cy="338" r="50" fill="#F59E0B" fill-opacity="0.9"/>
  <path d="M410 288C422 270 446 262 464 270" stroke="#FDE68A" stroke-width="14" stroke-linecap="round"/>
  <circle cx="530" cy="342" r="46" fill="#EF4444" fill-opacity="0.9"/>
  <path d="M530 294C540 278 558 270 574 274" stroke="#FCA5A5" stroke-width="14" stroke-linecap="round"/>
  <rect x="198" y="430" width="384" height="90" rx="18" fill="#0F172A" stroke="#334155"/>
  <rect x="668" y="176" width="288" height="144" rx="24" fill="#DCFCE7" fill-opacity="0.12" stroke="#34D399" stroke-opacity="0.4"/>
  <path d="M738 224H878" stroke="#86EFAC" stroke-width="18" stroke-linecap="round"/>
  <path d="M738 266H842" stroke="#86EFAC" stroke-width="18" stroke-linecap="round"/>
  <rect x="668" y="362" width="288" height="144" rx="24" fill="#CCFBF1" fill-opacity="0.1" stroke="#2DD4BF" stroke-opacity="0.4"/>
  <path d="M726 434L782 462L886 394" stroke="#5EEAD4" stroke-width="18" stroke-linecap="round" stroke-linejoin="round"/>
  <defs>
    <linearGradient id="bg" x1="54" y1="42" x2="1132" y2="678" gradientUnits="userSpaceOnUse">
      <stop stop-color="#0F766E"/>
      <stop offset="1" stop-color="#06B6D4"/>
    </linearGradient>
  </defs>
</svg>