<svg width="1200" height="720" viewBox="0 0 1200 720" fill="none" xmlns="http://www.w3.org/2000/svg" role="img" aria-labelledby="title desc">
  <title id="title">Blog Website</title>
  <desc id="desc">Illustration card for Blog Website.</desc>
  <defs>
    <linearGradient id="bg" x1="90" y1="50" x2="1110" y2="670" gradientUnits="userSpaceOnUse">
      <stop stop-color="#134E4A"/>
      <stop offset="0.58" stop-color="#0F766E"/>
      <stop offset="1" stop-color="#5EEAD4"/>
    </linearGradient>
    <linearGradient id="glass" x1="170" y1="110" x2="1030" y2="610" gradientUnits="userSpaceOnUse">
      <stop stop-color="white" stop-opacity="0.22"/>
      <stop offset="1" stop-color="white" stop-opacity="0.06"/>
    </linearGradient>
  </defs>

  <rect width="1200" height="720" fill="url(#bg)"/>
  <circle cx="1030" cy="130" r="200" fill="white" fill-opacity="0.11"/>
  <circle cx="170" cy="640" r="230" fill="#011A30" fill-opacity="0.22"/>

  <rect x="150" y="90" width="900" height="540" rx="34" fill="url(#glass)" stroke="rgba(255,255,255,0.32)"/>
  <rect x="196" y="142" width="808" height="40" rx="12" fill="rgba(255,255,255,0.14)"/>
  <circle cx="226" cy="162" r="7" fill="#FCA5A5"/>
  <circle cx="250" cy="162" r="7" fill="#FDE68A"/>
  <circle cx="274" cy="162" r="7" fill="#86EFAC"/>
  <rect x="338" y="151" width="240" height="22" rx="11" fill="rgba(255,255,255,0.2)"/>

  <rect x="470" y="220" width="260" height="170" rx="16" fill="rgba(255,255,255,0.14)" stroke="rgba(255,255,255,0.44)" stroke-width="2.5"/>
  <rect x="500" y="260" width="200" height="16" rx="8" fill="rgba(234,251,255,0.86)"/>
  <rect x="500" y="290" width="164" height="12" rx="6" fill="rgba(234,251,255,0.66)"/>
  <rect x="500" y="312" width="186" height="12" rx="6" fill="rgba(234,251,255,0.66)"/>
  <rect x="500" y="334" width="142" height="12" rx="6" fill="rgba(234,251,255,0.66)"/>

  <rect x="230" y="460" width="740" height="120" rx="22" fill="rgba(255,255,255,0.14)"/>
  <text x="270" y="518" fill="#E9FBFF" font-size="40" font-family="Segoe UI, Arial, sans-serif" font-weight="700">Blog Website</text>
  <text x="270" y="554" fill="#E9FBFF" fill-opacity="0.82" font-size="22" font-family="Segoe UI, Arial, sans-serif">Content and Reading UI</text>
</svg>
