<svg width="1200" height="720" viewBox="0 0 1200 720" fill="none" xmlns="http://www.w3.org/2000/svg" role="img" aria-labelledby="title desc">
  <title id="title">Collab Whiteboard</title>
  <desc id="desc">Illustration card for Collab Whiteboard.</desc>
  <defs>
    <linearGradient id="bg" x1="90" y1="50" x2="1110" y2="670" gradientUnits="userSpaceOnUse">
      <stop stop-color="#0C4A6E"/>
      <stop offset="0.58" stop-color="#0891B2"/>
      <stop offset="1" stop-color="#67E8F9"/>
    </linearGradient>
    <linearGradient id="glass" x1="170" y1="110" x2="1030" y2="610" gradientUnits="userSpaceOnUse">
      <stop stop-color="white" stop-opacity="0.22"/>
      <stop offset="1" stop-color="white" stop-opacity="0.06"/>
    </linearGradient>
  </defs>

  <rect width="1200" height="720" fill="url(#bg)"/>
  <circle cx="1030" cy="130" r="200" fill="white" fill-opacity="0.11"/>
  <circle cx="170" cy="640" r="230" fill="#011A30" fill-opacity="0.22"/>
  <rect x="196" y="142" width="808" height="40" rx="12" fill="rgba(255,255,255,0.14)"/>
  <circle cx="226" cy="162" r="7" fill="#FCA5A5"/>
  <circle cx="250" cy="162" r="7" fill="#FDE68A"/>
  <circle cx="274" cy="162" r="7" fill="#86EFAC"/>
  <rect x="338" y="151" width="240" height="22" rx="11" fill="rgba(255,255,255,0.2)"/>

  <rect x="450" y="210" width="300" height="180" rx="18" fill="rgba(255,255,255,0.14)" stroke="rgba(255,255,255,0.42)" stroke-width="3"/>
  <path d="M485 340L535 280L585 320L635 255L705 315" stroke="#EAFBFF" stroke-width="7" stroke-linecap="round" stroke-linejoin="round"/>
  <circle cx="705" cy="315" r="8" fill="#EAFBFF"/>

  <rect x="230" y="460" width="740" height="120" rx="22" fill="rgba(255,255,255,0.14)"/>
  <text x="270" y="518" fill="#E9FBFF" font-size="40" font-family="Segoe UI, Arial, sans-serif" font-weight="700">Collab Whiteboard</text>
  <text x="270" y="554" fill="#E9FBFF" fill-opacity="0.82" font-size="22" font-family="Segoe UI, Arial, sans-serif">Real-time Canvas</text>
</svg>

