<svg width="1200" height="720" viewBox="0 0 1200 720" fill="none" xmlns="http://www.w3.org/2000/svg">
  <rect width="1200" height="720" rx="40" fill="url(#bg)"/>
  <circle cx="1010" cy="120" r="110" fill="#67E8F9" fill-opacity="0.24"/>
  <circle cx="170" cy="600" r="170" fill="#2563EB" fill-opacity="0.18"/>
  <rect x="116" y="110" width="968" height="500" rx="30" fill="#0F172A" fill-opacity="0.72" stroke="#334155"/>
  <rect x="160" y="156" width="550" height="408" rx="24" fill="#111827" stroke="#1E293B"/>
  <rect x="194" y="192" width="482" height="48" rx="14" fill="#0EA5E9"/>
  <rect x="194" y="274" width="138" height="212" rx="18" fill="#ECFEFF" fill-opacity="0.12" stroke="#22D3EE" stroke-opacity="0.35"/>
  <rect x="366" y="274" width="138" height="212" rx="18" fill="#DBEAFE" fill-opacity="0.12" stroke="#60A5FA" stroke-opacity="0.35"/>
  <rect x="538" y="274" width="138" height="212" rx="18" fill="#E0F2FE" fill-opacity="0.12" stroke="#38BDF8" stroke-opacity="0.35"/>
  <rect x="760" y="180" width="264" height="160" rx="24" fill="#ECFEFF" fill-opacity="0.12" stroke="#22D3EE" stroke-opacity="0.4"/>
  <path d="M828 220H954" stroke="#67E8F9" stroke-width="18" stroke-linecap="round"/>
  <path d="M828 258H916" stroke="#67E8F9" stroke-width="18" stroke-linecap="round"/>
  <rect x="760" y="380" width="264" height="160" rx="24" fill="#DBEAFE" fill-opacity="0.12" stroke="#60A5FA" stroke-opacity="0.4"/>
  <path d="M820 444H964" stroke="#93C5FD" stroke-width="18" stroke-linecap="round"/>
  <circle cx="824" cy="506" r="16" fill="#93C5FD"/>
  <circle cx="906" cy="506" r="16" fill="#93C5FD"/>
  <path d="M852 506H878" stroke="#93C5FD" stroke-width="14" stroke-linecap="round"/>
  <defs>
    <linearGradient id="bg" x1="58" y1="36" x2="1130" y2="694" gradientUnits="userSpaceOnUse">
      <stop stop-color="#0891B2"/>
      <stop offset="1" stop-color="#2563EB"/>
    </linearGradient>
  </defs>
</svg>