<svg width="1200" height="720" viewBox="0 0 1200 720" fill="none" xmlns="http://www.w3.org/2000/svg">
  <rect width="1200" height="720" rx="40" fill="url(#bg)"/>
  <circle cx="160" cy="110" r="120" fill="#60A5FA" fill-opacity="0.22"/>
  <circle cx="1040" cy="620" r="160" fill="#A78BFA" fill-opacity="0.18"/>
  <rect x="110" y="110" width="980" height="500" rx="30" fill="#0F172A" fill-opacity="0.72" stroke="#334155"/>
  <rect x="150" y="150" width="520" height="420" rx="24" fill="#111827" stroke="#1E293B"/>
  <rect x="186" y="188" width="446" height="54" rx="14" fill="#2563EB"/>
  <rect x="186" y="266" width="190" height="132" rx="18" fill="#DBEAFE" fill-opacity="0.12" stroke="#60A5FA" stroke-opacity="0.35"/>
  <rect x="394" y="266" width="238" height="132" rx="18" fill="#CFFAFE" fill-opacity="0.12" stroke="#22D3EE" stroke-opacity="0.35"/>
  <rect x="186" y="420" width="446" height="110" rx="18" fill="#0F172A" stroke="#334155"/>
  <rect x="730" y="168" width="248" height="124" rx="24" fill="#EDE9FE" fill-opacity="0.14" stroke="#A78BFA" stroke-opacity="0.38"/>
  <path d="M792 202H914" stroke="#C4B5FD" stroke-width="18" stroke-linecap="round"/>
  <path d="M792 244H884" stroke="#C4B5FD" stroke-width="18" stroke-linecap="round"/>
  <rect x="730" y="330" width="248" height="192" rx="24" fill="#DBEAFE" fill-opacity="0.12" stroke="#60A5FA" stroke-opacity="0.38"/>
  <path d="M800 458L844 408L878 440L930 372" stroke="#7DD3FC" stroke-width="18" stroke-linecap="round" stroke-linejoin="round"/>
  <circle cx="1010" cy="200" r="42" fill="#22D3EE" fill-opacity="0.25"/>
  <circle cx="1010" cy="200" r="18" fill="#67E8F9"/>
  <defs>
    <linearGradient id="bg" x1="36" y1="35" x2="1120" y2="680" gradientUnits="userSpaceOnUse">
      <stop stop-color="#1D4ED8"/>
      <stop offset="1" stop-color="#4F46E5"/>
    </linearGradient>
  </defs>
</svg>