<svg width="1200" height="720" viewBox="0 0 1200 720" fill="none" xmlns="http://www.w3.org/2000/svg" role="img" aria-labelledby="title desc">
  <title id="title">StudyNotion</title>
  <desc id="desc">Illustration card for StudyNotion.</desc>
  <defs>
    <linearGradient id="bg" x1="90" y1="50" x2="1110" y2="670" gradientUnits="userSpaceOnUse">
      <stop stop-color="#173B7B"/>
      <stop offset="0.58" stop-color="#4F8FF7"/>
      <stop offset="1" stop-color="#9CC7FF"/>
    </linearGradient>
    <linearGradient id="glass" x1="170" y1="110" x2="1030" y2="610" gradientUnits="userSpaceOnUse">
      <stop stop-color="white" stop-opacity="0.22"/>
      <stop offset="1" stop-color="white" stop-opacity="0.06"/>
    </linearGradient>
  </defs>

  <rect width="1200" height="720" fill="url(#bg)"/>
  <circle cx="1030" cy="130" r="200" fill="white" fill-opacity="0.11"/>
  <circle cx="170" cy="640" r="230" fill="#011A30" fill-opacity="0.22"/>

  <rect x="150" y="90" width="900" height="540" rx="34" fill="url(#glass)" stroke="rgba(255,255,255,0.32)"/>
  <rect x="196" y="142" width="808" height="40" rx="12" fill="rgba(255,255,255,0.14)"/>
  <circle cx="226" cy="162" r="7" fill="#FCA5A5"/>
  <circle cx="250" cy="162" r="7" fill="#FDE68A"/>
  <circle cx="274" cy="162" r="7" fill="#86EFAC"/>
  <rect x="338" y="151" width="240" height="22" rx="11" fill="rgba(255,255,255,0.2)"/>

  <rect x="470" y="210" width="120" height="150" rx="14" fill="rgba(255,255,255,0.22)" stroke="rgba(255,255,255,0.46)" stroke-width="2"/>
  <rect x="610" y="210" width="120" height="150" rx="14" fill="rgba(255,255,255,0.12)" stroke="rgba(255,255,255,0.34)" stroke-width="2"/>
  <line x1="600" y1="210" x2="600" y2="360" stroke="#E8FBFF" stroke-opacity="0.7" stroke-width="3"/>

  <rect x="230" y="460" width="740" height="120" rx="22" fill="rgba(255,255,255,0.14)"/>
  <text x="270" y="518" fill="#E9FBFF" font-size="40" font-family="Segoe UI, Arial, sans-serif" font-weight="700">StudyNotion</text>
  <text x="270" y="554" fill="#E9FBFF" fill-opacity="0.82" font-size="22" font-family="Segoe UI, Arial, sans-serif">EdTech Platform</text>
</svg>
